<svg width="768" height="18" viewBox="0 0 768 18" fill="none" xmlns="http://www.w3.org/2000/svg">
<path d="M768 17.5C761.958 17.5 758.803 14.1 756.252 11.3652C753.97 8.92609 752.292 7.15217 748.734 7.15217C745.109 7.15217 743.497 8.92609 741.215 11.3652C738.664 14.1 735.509 17.5 729.467 17.5C723.425 17.5 720.27 14.1 717.719 11.3652C715.437 8.92609 713.759 7.15217 710.201 7.15217C706.643 7.15217 704.964 8.92609 702.682 11.3652C700.131 14.1 696.976 17.5 690.934 17.5C684.892 17.5 681.737 14.1 679.186 11.3652C676.904 8.92609 675.226 7.15217 671.668 7.15217C668.043 7.15217 666.432 8.92609 664.149 11.3652C661.598 14.1 658.443 17.5 652.401 17.5C646.36 17.5 643.205 14.1 640.654 11.3652C638.371 8.92609 636.693 7.15217 633.135 7.15217C629.51 7.15217 627.899 8.92609 625.616 11.3652C622.797 14.1 619.642 17.5 613.6 17.5C607.558 17.5 604.403 14.1 601.852 11.3652C599.57 8.92609 597.891 7.15217 594.334 7.15217C590.708 7.15217 589.097 8.92609 586.815 11.3652C584.264 14.1 581.109 17.5 575.067 17.5C569.025 17.5 565.87 14.1 563.319 11.3652C561.037 8.92609 559.359 7.15217 555.801 7.15217C552.176 7.15217 550.565 8.92609 548.282 11.3652C545.597 14.1 542.442 17.5 536.4 17.5C530.358 17.5 527.203 14.1 524.652 11.3652C522.37 8.92609 520.691 7.15217 517.134 7.15217C513.508 7.15217 511.897 8.92609 509.615 11.3652C507.064 14.1 503.909 17.5 497.867 17.5C491.825 17.5 488.67 14.1 486.119 11.3652C483.837 8.92609 482.159 7.15217 478.601 7.15217C475.043 7.15217 473.365 8.92609 471.082 11.3652C468.464 14.1 465.242 17.5 459.2 17.5C453.158 17.5 450.003 14.1 447.452 11.3652C445.17 8.92609 443.491 7.15217 439.934 7.15217C436.309 7.15217 434.697 8.92609 432.415 11.3652C429.864 14.1 426.709 17.5 420.667 17.5C414.625 17.5 411.47 14.1 408.919 11.3652C406.637 8.92609 404.959 7.15217 401.401 7.15217C397.776 7.15217 396.165 8.92609 393.882 11.3652C391.331 14.1 388.176 17.5 382.134 17.5C376.093 17.5 372.937 14.1 370.386 11.3652C368.104 8.92609 366.426 7.15217 362.868 7.15217C359.31 7.15217 357.632 8.92609 355.349 11.3652C352.798 14.1 349.643 17.5 343.601 17.5C337.56 17.5 334.405 14.1 331.854 11.3652C329.571 8.92609 327.893 7.15217 324.335 7.15217C320.71 7.15217 319.099 8.92609 316.816 11.3652C314.265 14.1 311.11 17.5 305.069 17.5C299.027 17.5 295.872 14.1 293.321 11.3652C291.038 8.92609 289.36 7.15217 285.802 7.15217C282.177 7.15217 280.566 8.92609 278.283 11.3652C275.733 14.1 272.577 17.5 266.536 17.5C260.494 17.5 257.339 14.1 254.788 11.3652C252.505 8.92609 250.827 7.15217 247.269 7.15217C243.644 7.15217 242.033 8.92609 239.751 11.3652C237.2 14.1 234.045 17.5 228.003 17.5C221.961 17.5 218.806 14.1 216.255 11.3652C213.973 8.92609 212.294 7.15217 208.736 7.15217C205.178 7.15217 203.5 8.92609 201.218 11.3652C198.667 14.1 195.512 17.5 189.47 17.5C183.428 17.5 180.273 14.1 177.722 11.3652C175.44 8.92609 173.761 7.15217 170.203 7.15217C166.578 7.15217 164.967 8.92609 162.685 11.3652C160.134 14.1 156.979 17.5 150.937 17.5C144.895 17.5 141.74 14.1 139.189 11.3652C136.907 8.92609 135.229 7.15217 131.671 7.15217C128.046 7.15217 126.434 8.92609 124.152 11.3652C121.601 14.1 118.446 17.5 112.404 17.5C106.362 17.5 103.207 14.1 100.656 11.3652C98.3739 8.92609 96.6956 7.15217 93.1377 7.15217C89.5127 7.15217 87.9016 8.92609 85.6191 11.3652C82.464 14.1 79.2417 17.5 73.2 17.5C67.1583 17.5 64.0031 14.1 61.4522 11.3652C59.1697 8.92609 57.4915 7.15217 53.9336 7.15217C50.3085 7.15217 48.6974 8.92609 46.415 11.3652C43.864 14.1 40.7089 17.5 34.6671 17.5C28.6254 17.5 25.4703 14.1 22.9193 11.3652C20.5697 8.92609 18.8915 7.15217 15.3336 7.15217C11.7085 7.15217 10.0974 8.92609 7.81496 11.3652C5.19687 14.1 2.04174 17.5 -4 17.5V10.8478C-0.374956 10.8478 1.23617 9.07391 3.51861 6.63478C6.06956 3.9 9.2247 0.5 15.3336 0.5C21.3753 0.5 24.5304 3.9 27.0814 6.63478C29.3638 9.07391 31.0421 10.8478 34.6 10.8478C38.225 10.8478 39.8362 9.07391 42.1186 6.63478C44.6696 3.9 47.8918 0.5 53.9336 0.5C59.9753 0.5 63.1304 3.9 65.6814 6.63478C67.9638 9.07391 69.6421 10.8478 73.2 10.8478C76.825 10.8478 78.4362 9.07391 80.7186 6.63478C83.2696 3.9 86.4247 0.5 92.4664 0.5C98.5082 0.5 101.663 3.9 104.214 6.63478C106.497 9.07391 108.175 10.8478 111.733 10.8478C115.358 10.8478 116.969 9.07391 119.251 6.63478C121.802 3.9 124.958 0.5 130.999 0.5C137.041 0.5 140.196 3.9 142.747 6.63478C145.03 9.07391 146.708 10.8478 150.266 10.8478C153.891 10.8478 155.502 9.07391 157.784 6.63478C160.335 3.9 163.49 0.5 169.532 0.5C175.574 0.5 178.729 3.9 181.28 6.63478C183.562 9.07391 185.241 10.8478 188.799 10.8478C192.424 10.8478 194.035 9.07391 196.317 6.63478C198.868 3.9 202.023 0.5 208.065 0.5C214.107 0.5 217.262 3.9 219.813 6.63478C222.095 9.07391 223.774 10.8478 227.331 10.8478C230.957 10.8478 232.568 9.07391 234.85 6.63478C237.401 3.9 240.556 0.5 246.598 0.5C252.64 0.5 255.795 3.9 258.346 6.63478C260.628 9.07391 262.306 10.8478 265.864 10.8478C269.422 10.8478 271.101 9.07391 273.383 6.63478C275.934 3.9 279.089 0.5 285.131 0.5C291.173 0.5 294.328 3.9 296.879 6.63478C299.161 9.07391 300.839 10.8478 304.397 10.8478C308.022 10.8478 309.633 9.07391 311.916 6.63478C314.467 3.9 317.622 0.5 323.664 0.5C329.705 0.5 332.861 3.9 335.411 6.63478C337.694 9.07391 339.372 10.8478 342.93 10.8478C346.555 10.8478 348.166 9.07391 350.449 6.63478C353 3.9 356.155 0.5 362.197 0.5C368.238 0.5 371.393 3.9 373.944 6.63478C376.227 9.07391 377.905 10.8478 381.463 10.8478C385.088 10.8478 386.699 9.07391 388.982 6.63478C391.533 3.9 394.688 0.5 400.729 0.5C406.771 0.5 409.926 3.9 412.477 6.63478C414.76 9.07391 416.438 10.8478 419.996 10.8478C423.621 10.8478 425.232 9.07391 427.514 6.63478C430.065 3.9 433.221 0.5 439.262 0.5C445.304 0.5 448.459 3.9 451.01 6.63478C453.293 9.07391 454.971 10.8478 458.529 10.8478C462.154 10.8478 463.765 9.07391 466.047 6.63478C468.598 3.9 471.753 0.5 477.795 0.5C483.837 0.5 486.992 3.9 489.543 6.63478C491.825 9.07391 493.504 10.8478 497.062 10.8478C500.687 10.8478 502.298 9.07391 504.58 6.63478C507.131 3.9 510.286 0.5 516.328 0.5C522.37 0.5 525.525 3.9 528.076 6.63478C530.358 9.07391 532.036 10.8478 535.594 10.8478C539.219 10.8478 540.831 9.07391 543.113 6.63478C546.47 3.9 549.625 0.5 555.734 0.5C561.775 0.5 564.93 3.9 567.481 6.63478C569.764 9.07391 571.442 10.8478 575 10.8478C578.558 10.8478 580.236 9.07391 582.519 6.63478C585.07 3.9 588.225 0.5 594.266 0.5C600.308 0.5 603.463 3.9 606.014 6.63478C608.297 9.07391 609.975 10.8478 613.533 10.8478C617.091 10.8478 618.769 9.07391 621.051 6.63478C623.67 3.9 626.825 0.5 632.934 0.5C639.042 0.5 642.13 3.9 644.681 6.63478C646.964 9.07391 648.642 10.8478 652.2 10.8478C655.758 10.8478 657.436 9.07391 659.719 6.63478C662.27 3.9 665.425 0.5 671.466 0.5C677.508 0.5 680.663 3.9 683.214 6.63478C685.497 9.07391 687.175 10.8478 690.733 10.8478C694.358 10.8478 695.969 9.07391 698.251 6.63478C700.802 3.9 703.958 0.5 709.999 0.5C716.041 0.5 719.196 3.9 721.747 6.63478C724.03 9.07391 725.708 10.8478 729.266 10.8478C732.824 10.8478 734.502 9.07391 736.784 6.63478C739.335 3.9 742.49 0.5 748.532 0.5C754.574 0.5 757.729 3.9 760.28 6.63478C762.562 9.07391 764.241 10.8478 767.799 10.8478V17.5H768Z" fill="#F1F1F1"/>
</svg>
